<svg id="Layer_1" data-name="Layer 1" xmlns="http://www.w3.org/2000/svg" viewBox="0 0 593.57 171.08"><defs><style>.cls-1{fill:#fff;}.cls-1,.cls-2,.cls-3,.cls-4{stroke:#000;stroke-miterlimit:10;}.cls-2,.cls-3{fill:none;}.cls-2{stroke-width:7px;}.cls-3{stroke-width:5px;}.cls-4{stroke-width:3px;}</style></defs><title>appcraft logo</title><path class="cls-1" d="M544.5,429.5" transform="translate(-386.32 -300.46)"/><polygon class="cls-2" points="144.66 126.29 144.66 44.79 74.08 4.04 3.5 44.79 3.5 126.29 74.08 167.04 144.66 126.29"/><polygon class="cls-3" points="72.18 121.04 63.18 121.04 76.18 51.04 85.18 51.04 72.18 121.04"/><polygon class="cls-4" points="129.18 80.04 129.18 92.04 93.18 111.04 93.18 99.04 119.18 86.04 93.18 73.04 93.18 61.04 129.18 80.04"/><polygon class="cls-4" points="19.18 80.04 19.18 92.04 55.18 111.04 55.18 99.04 29.18 86.04 55.18 73.04 55.18 61.04 19.18 80.04"/><path d="M663.17,364a13.81,13.81,0,0,1,4.06,9.52,15.65,15.65,0,0,1-2.14,8.77,15.24,15.24,0,0,1-6.71,5.79,22.77,22.77,0,0,1-6.15,1.52,43.43,43.43,0,0,1-8,.35h-.15v1.65c0,2.39-.07,5-.07,7.9v7.9c-.06,1.06-.08,1.93-.08,2.62v1l-8.4-.07v-1c0-.73,0-1.61.08-2.62v-7.93q0-4.08.07-11.25c0-1.89-.07-3.75-.07-5.59q4.95-.06,8.62,0c1.85.05,3.39,0,4.61,0a22.08,22.08,0,0,0,3.94-.62,9.33,9.33,0,0,0,3.34-1.45,7.14,7.14,0,0,0,2.06-2.63,9.42,9.42,0,0,0,.83-4.17,6.27,6.27,0,0,0-1.09-3.55,7.33,7.33,0,0,0-3-2.52q-2.85-1.38-10.72-1.45l-8.62-.07V359h12.59Q658.3,359.12,663.17,364Z" transform="translate(-386.32 -300.46)"/><path d="M709.67,364a13.84,13.84,0,0,1,4.05,9.52,15.57,15.57,0,0,1-2.13,8.77,15.22,15.22,0,0,1-6.72,5.79,22.57,22.57,0,0,1-6.15,1.52,43.28,43.28,0,0,1-8,.35h-.15v1.65c0,2.39-.08,5-.08,7.9v7.9c-.05,1.06-.07,1.93-.07,2.62v1L682,411v-1c0-.73,0-1.61.07-2.62v-7.93q0-4.08.08-11.25c0-1.89-.08-3.75-.08-5.59q4.95-.06,8.63,0c1.85.05,3.39,0,4.61,0a22.08,22.08,0,0,0,3.94-.62,9.33,9.33,0,0,0,3.34-1.45,7.14,7.14,0,0,0,2.06-2.63,9.42,9.42,0,0,0,.82-4.17,6.26,6.26,0,0,0-1.08-3.55,7.33,7.33,0,0,0-3-2.52q-2.85-1.38-10.72-1.45l-8.63-.07V359h12.6Q704.8,359.12,709.67,364Z" transform="translate(-386.32 -300.46)"/><path d="M772.22,398.65l-.15,9.52c-.15.09-.41.23-.78.41s-1.14.51-2.29,1-2.33.86-3.53,1.21a35.12,35.12,0,0,1-4.57.9,35.63,35.63,0,0,1-5.55.31,31.75,31.75,0,0,1-7.84-1.31,29.33,29.33,0,0,1-7.54-3.52,30.89,30.89,0,0,1-6.33-5.46,23.28,23.28,0,0,1-4.35-7.41,24.91,24.91,0,0,1-1.54-9.21A26.19,26.19,0,0,1,730.3,374a25.77,25.77,0,0,1,6.45-8.59,31.22,31.22,0,0,1,9-5.39,29,29,0,0,1,10.2-2,37.29,37.29,0,0,1,8.29.93,26.79,26.79,0,0,1,6,1.9l1.95,1v9.39l-.64-.59a19.76,19.76,0,0,0-1.91-1.38,19.5,19.5,0,0,0-3.23-1.72,27.05,27.05,0,0,0-4.53-1.35,30.88,30.88,0,0,0-5.82-.69,18.77,18.77,0,0,0-7.16,1.45,21.41,21.41,0,0,0-6.34,4A19.85,19.85,0,0,0,738,377a18.78,18.78,0,0,0-1.92,7.62,17.36,17.36,0,0,0,1.54,7.83,20.07,20.07,0,0,0,4.5,6.42,22.38,22.38,0,0,0,6.45,4.25,19.09,19.09,0,0,0,7.31,1.65,25.77,25.77,0,0,0,5.52-.59,20.84,20.84,0,0,0,4.61-1.48,32.79,32.79,0,0,0,3.34-1.83,16.61,16.61,0,0,0,2.13-1.55Z" transform="translate(-386.32 -300.46)"/><path d="M803.12,359.11q7.65.34,12.38,3.93a12.74,12.74,0,0,1,5,10.08,15.06,15.06,0,0,1-1.38,7.9,16,16,0,0,1-4.77,5.21,16.47,16.47,0,0,1-6.15,2.62L825.62,411l-10.5-.07-16-21.18c-.55-.05-1.1-.07-1.65-.07q.08,10.69.08,21.32H789q0-11,.08-22.15H789v-5.93h8.48c1.25,0,2.29,0,3.11,0a27.56,27.56,0,0,0,3-.27,18.26,18.26,0,0,0,3-.62,12.61,12.61,0,0,0,2.48-1.14,6.35,6.35,0,0,0,2-1.8,7.8,7.8,0,0,0,1.08-2.65,10.77,10.77,0,0,0,.15-3.63,5.52,5.52,0,0,0-1.42-3.07,8.71,8.71,0,0,0-3.15-2.31q-2.7-1-10.2-1H789V359Q796.9,358.91,803.12,359.11Z" transform="translate(-386.32 -300.46)"/><path d="M931.3,359l-.08,7.32-28.2.14V359Zm-.68,19.95-.07,7.24-18.9.07L911.57,411H903V378.92Z" transform="translate(-386.32 -300.46)"/><path d="M945.4,366.36V359l34.5-.07v7.39h-13V411h-8.55l.08-44.64Z" transform="translate(-386.32 -300.46)"/><polygon points="202.8 69.46 181.98 110.54 191.2 110.54 207.04 78.6 202.8 69.46"/><polygon points="209.95 55.34 205.67 63.79 211.41 76.14 227.5 110.54 236.95 110.54 209.95 55.34"/><polygon points="470.8 69.46 449.98 110.54 459.2 110.54 475.04 78.6 470.8 69.46"/><polygon points="477.95 55.34 473.67 63.79 479.41 76.14 495.5 110.54 504.95 110.54 477.95 55.34"/></svg>