<?xml version="1.0" encoding="utf-8"?>
<!-- Generator: Adobe Illustrator 22.0.0, SVG Export Plug-In . SVG Version: 6.00 Build 0)  -->
<svg version="1.1" xmlns="http://www.w3.org/2000/svg" xmlns:xlink="http://www.w3.org/1999/xlink" x="0px" y="0px"
	 viewBox="0 0 813.6 472.6" style="enable-background:new 0 0 813.6 472.6;" xml:space="preserve">
<style type="text/css">
	.st0{display:none;}
	.st1{display:inline;fill:#FFFFFF;stroke:#000000;stroke-miterlimit:10;}
	.st2{fill:url(#SVGID_1_);}
	.st3{fill:url(#SVGID_2_);}
	.st4{fill:url(#SVGID_3_);}
	.st5{fill:url(#SVGID_4_);}
	.st6{fill:url(#SVGID_5_);}
	.st7{fill:url(#SVGID_6_);}
	.st8{fill:url(#SVGID_7_);}
	.st9{fill:url(#SVGID_8_);}
	.st10{fill:url(#SVGID_9_);}
	.st11{fill:url(#SVGID_10_);}
	.st12{fill:url(#SVGID_11_);}
	.st13{font-family:'TwCenMT-Bold';}
	.st14{font-size:30px;}
</style>
<g id="Layer_1" class="st0">
	<path class="st1" d="M740.5,103"/>
</g>
<g id="Layer_2">
	<linearGradient id="SVGID_1_" gradientUnits="userSpaceOnUse" x1="334.4801" y1="-35.9712" x2="490.7788" y2="234.7461">
		<stop  offset="0" style="stop-color:#000000"/>
		<stop  offset="1" style="stop-color:#000000"/>
	</linearGradient>
	<path class="st2" d="M524.5,188l4,25l-120,38l-120-38l4-25c0,0-168-72-22-187c0,0-56,87,39,125c0,0,15-23,55.8-36.1
		c28.2-9,58.2-9,86.3,0c40.8,13.1,55.8,36.1,55.8,36.1c95-38,39-125,39-125C692.5,116,524.5,188,524.5,188z"/>
	<path d="M423.5,278l84-27c0,0-14,42-42,49C465.5,300,439.5,296,423.5,278z"/>
	<path d="M393.5,278l-84-27c0,0,14,42,42,49C351.5,300,377.5,296,393.5,278z"/>
	<g>
		<path d="M207.3,361.6l24.1,35.5l25.1-35.5H276L241.7,410c-1.2,1.5-2.6,2.9-4.3,4.2c-1.7,1.2-3.8,1.8-6.4,1.8
			c-2.5,0-4.6-0.6-6.3-1.7c-1.7-1.1-3.1-2.6-4.3-4.3l-33.5-48.4H207.3z"/>
		<path d="M298.7,415.1h-16.6v-53.5h16.6V415.1z"/>
		<path d="M376.5,415.1h-25L335.3,401c-2.8-2.4-4.9-4.3-6.4-5.6c-1.5-1.3-2.7-2.5-3.6-3.4c0.1,1.2,0.1,2.5,0.2,3.8
			c0.1,1.3,0.1,2.6,0.1,3.9v15.4H309v-53.5h16.6V374c0,1.7,0,3.3-0.1,4.9c-0.1,1.6-0.1,3.1-0.2,4.5c1.1-1,2.4-2.1,3.9-3.6
			c1.5-1.4,3.5-3.1,6-5.2l15.4-13h24l-20.5,15.4c-1.8,1.3-3.3,2.5-4.7,3.5c-1.4,1-2.6,1.9-3.6,2.6c-1.1,0.7-2,1.4-2.9,2
			c-0.9,0.6-1.7,1.1-2.6,1.7c1.5,1.1,3.4,2.4,5.6,4c2.2,1.6,5,3.8,8.5,6.6L376.5,415.1z"/>
		<path d="M398.8,415.1h-16.6v-53.5h16.6V415.1z"/>
		<path d="M463.3,416c-1.1,0-2.1-0.2-3.2-0.5c-1-0.3-2.2-1.1-3.5-2.4l-32.8-29.4v31.4h-15v-44.4c0-1.8,0.3-3.3,0.8-4.6
			s1.2-2.3,2-3.1c0.8-0.8,1.8-1.4,2.9-1.8c1.1-0.4,2.2-0.6,3.4-0.6c1,0,2,0.2,3.1,0.5c1,0.3,2.2,1.1,3.6,2.4l32.8,29.4v-31.4h15.1
			v44.3c0,1.8-0.3,3.3-0.8,4.6c-0.5,1.3-1.2,2.3-2,3.2c-0.8,0.8-1.8,1.4-2.9,1.8C465.7,415.8,464.5,416,463.3,416z"/>
		<path d="M515.3,381.6h34.2v33.4h-36.7c-4.6,0-8.9-0.7-12.9-2.1c-3.9-1.4-7.3-3.3-10.2-5.7c-2.9-2.4-5.1-5.3-6.7-8.6
			c-1.6-3.3-2.4-6.9-2.4-10.8c0-3.9,0.8-7.5,2.4-10.7c1.6-3.2,3.9-6,6.7-8.3c2.9-2.3,6.3-4.1,10.2-5.4c3.9-1.3,8.2-1.9,12.9-1.9
			h38.3l-10.7,13.9h-27.6c-2.2,0-4.3,0.3-6.2,1c-1.9,0.6-3.6,1.5-5,2.7c-1.4,1.2-2.5,2.5-3.3,4.1c-0.8,1.6-1.2,3.3-1.2,5.2
			c0,1.9,0.4,3.7,1.2,5.2c0.8,1.6,1.9,2.9,3.3,4c1.4,1.1,3.1,2,5,2.6s4,0.9,6.3,0.9H533v-7.8h-27.7L515.3,381.6z"/>
		<path d="M608.6,382.9c6.6,0,11.5,1.2,15,3.6s5.1,6.1,5.1,11c0,2.7-0.4,5.2-1.3,7.4c-0.9,2.2-2.2,4-4.1,5.5
			c-1.9,1.5-4.3,2.6-7.2,3.4c-2.9,0.8-6.4,1.2-10.4,1.2h-49.8l10.6-13.8H607c2,0,3.4-0.3,4.3-0.9c0.9-0.6,1.4-1.6,1.4-3
			s-0.5-2.4-1.4-3c-0.9-0.6-2.3-0.9-4.3-0.9h-29.1c-3.5,0-6.5-0.4-9-1.1c-2.5-0.7-4.6-1.8-6.2-3.1c-1.7-1.3-2.9-2.9-3.7-4.8
			c-0.8-1.9-1.2-4-1.2-6.3c0-2.5,0.4-4.8,1.3-6.8c0.9-2.1,2.2-3.8,4.1-5.2s4.2-2.6,7.1-3.4c2.9-0.8,6.4-1.2,10.4-1.2h46.5
			l-10.6,13.9h-37.1c-1.9,0-3.3,0.3-4.3,0.8c-0.9,0.5-1.4,1.5-1.4,2.9c0,1.4,0.5,2.4,1.4,2.9c0.9,0.6,2.4,0.8,4.3,0.8H608.6z"/>
	</g>
	<g>
		<linearGradient id="SVGID_2_" gradientUnits="userSpaceOnUse" x1="689.9544" y1="300.4941" x2="689.9544" y2="470.4941">
			<stop  offset="0" style="stop-color:#000000"/>
			<stop  offset="1" style="stop-color:#000000"/>
		</linearGradient>
		<rect x="674" y="300.5" class="st3" width="32" height="170"/>
		<linearGradient id="SVGID_3_" gradientUnits="userSpaceOnUse" x1="724.9544" y1="320.4941" x2="724.9544" y2="450.4941">
			<stop  offset="0" style="stop-color:#000000"/>
			<stop  offset="1" style="stop-color:#000000"/>
		</linearGradient>
		<rect x="709" y="320.5" class="st4" width="32" height="130"/>
		<linearGradient id="SVGID_4_" gradientUnits="userSpaceOnUse" x1="759.9544" y1="340.4941" x2="759.9544" y2="430.4941">
			<stop  offset="0" style="stop-color:#000000"/>
			<stop  offset="1" style="stop-color:#000000"/>
		</linearGradient>
		<rect x="744" y="340.5" class="st5" width="32" height="90"/>
		<linearGradient id="SVGID_5_" gradientUnits="userSpaceOnUse" x1="794.9544" y1="375.4941" x2="794.9544" y2="395.4941">
			<stop  offset="0" style="stop-color:#000000"/>
			<stop  offset="1" style="stop-color:#000000"/>
		</linearGradient>
		<rect x="779" y="375.5" class="st6" width="32" height="20"/>
		<linearGradient id="SVGID_6_" gradientUnits="userSpaceOnUse" x1="654.9544" y1="375.4941" x2="654.9544" y2="395.4941">
			<stop  offset="0" style="stop-color:#000000"/>
			<stop  offset="1" style="stop-color:#000000"/>
		</linearGradient>
		<rect x="639" y="375.5" class="st7" width="32" height="20"/>
	</g>
	<g>
		<linearGradient id="SVGID_7_" gradientUnits="userSpaceOnUse" x1="124.9544" y1="300.4941" x2="124.9544" y2="470.4941">
			<stop  offset="0" style="stop-color:#000000"/>
			<stop  offset="1" style="stop-color:#000000"/>
		</linearGradient>
		<polygon class="st8" points="109,470.5 141,470.5 141,300.5 109,300.5 		"/>
		<linearGradient id="SVGID_8_" gradientUnits="userSpaceOnUse" x1="89.9544" y1="320.4941" x2="89.9544" y2="450.4941">
			<stop  offset="0" style="stop-color:#000000"/>
			<stop  offset="1" style="stop-color:#000000"/>
		</linearGradient>
		<polygon class="st9" points="74,450.5 106,450.5 106,320.5 74,320.5 		"/>
		<linearGradient id="SVGID_9_" gradientUnits="userSpaceOnUse" x1="54.9544" y1="340.4941" x2="54.9544" y2="430.4941">
			<stop  offset="0" style="stop-color:#000000"/>
			<stop  offset="1" style="stop-color:#000000"/>
		</linearGradient>
		<polygon class="st10" points="39,430.5 71,430.5 71,340.5 39,340.5 		"/>
		<linearGradient id="SVGID_10_" gradientUnits="userSpaceOnUse" x1="19.9544" y1="375.4941" x2="19.9544" y2="395.4941">
			<stop  offset="0" style="stop-color:#000000"/>
			<stop  offset="1" style="stop-color:#000000"/>
		</linearGradient>
		<polygon class="st11" points="4,395.5 36,395.5 36,375.5 4,375.5 		"/>
		<linearGradient id="SVGID_11_" gradientUnits="userSpaceOnUse" x1="159.9544" y1="375.4941" x2="159.9544" y2="395.4941">
			<stop  offset="0" style="stop-color:#000000"/>
			<stop  offset="1" style="stop-color:#000000"/>
		</linearGradient>
		<polygon class="st12" points="144,395.5 176,395.5 176,375.5 144,375.5 		"/>
	</g>
	<text transform="matrix(1 0 0 1 292.5482 450.5761)" class="st13 st14">GYM AND FITNESS</text>
</g>
</svg>
